<svg width="24" height="24" viewBox="0 0 24 24" fill="none" xmlns="http://www.w3.org/2000/svg">
<g clip-path="url(#clip0_58_12)">
<path d="M18.6238 12.9767C18.5077 12.8652 18.3697 12.7767 18.2178 12.7163C18.0659 12.656 17.903 12.6249 17.7386 12.6249C17.5742 12.6249 17.4113 12.656 17.2594 12.7163C17.1074 12.7767 16.9695 12.8652 16.8533 12.9767L14.8574 14.8895C13.932 14.6255 12.2053 14.0255 11.1109 12.9767C10.0165 11.9279 9.39041 10.2731 9.11493 9.38635L11.1109 7.47357C11.2272 7.36223 11.3196 7.22998 11.3826 7.08441C11.4456 6.93883 11.4781 6.78278 11.4781 6.62518C11.4781 6.46758 11.4456 6.31153 11.3826 6.16595C11.3196 6.02038 11.2272 5.88813 11.1109 5.77679L6.10223 0.976838C5.98605 0.865304 5.84805 0.776819 5.69615 0.716447C5.54425 0.656075 5.38141 0.625 5.21696 0.625C5.05251 0.625 4.88967 0.656075 4.73776 0.716447C4.58586 0.776819 4.44786 0.865304 4.33168 0.976838L0.93582 4.23121C0.459999 4.6872 0.192036 5.31359 0.202053 5.95319C0.230853 7.66197 0.702919 13.5971 5.58385 18.2747C10.4647 22.9522 16.658 23.4034 18.4422 23.4322H18.4773C19.1385 23.4322 19.7633 23.1826 20.2366 22.729L23.6325 19.4747C23.7489 19.3633 23.8412 19.2311 23.9042 19.0855C23.9672 18.9399 23.9996 18.7839 23.9996 18.6263C23.9996 18.4687 23.9672 18.3126 23.9042 18.167C23.8412 18.0215 23.7489 17.8892 23.6325 17.7779L18.6238 12.9767ZM18.4648 21.031C16.9022 21.0058 11.5554 20.6038 7.3544 16.5767C3.13962 12.5375 2.73141 7.39557 2.70638 5.92799L5.21696 3.52201L8.45505 6.62518L6.83601 8.17677C6.68883 8.3177 6.58062 8.49157 6.52115 8.68264C6.46168 8.87372 6.45284 9.07598 6.49542 9.27115C6.52547 9.40915 7.26049 12.6815 9.33907 14.6735C11.4177 16.6655 14.8323 17.3699 14.9763 17.3987C15.1798 17.4406 15.3911 17.4328 15.5906 17.376C15.7902 17.3192 15.9717 17.2151 16.1183 17.0735L17.7386 15.5219L20.9766 18.6251L18.4648 21.031Z" fill="white"/>
</g>
<defs>
<clipPath id="clip0_58_12">
<rect width="24" height="24" fill="white"/>
</clipPath>
</defs>
</svg>
